<svg width="107" height="107" viewBox="0 0 107 107" fill="none" xmlns="http://www.w3.org/2000/svg">
<g clip-path="url(#clip0_1_3555)">
<path fill-rule="evenodd" clip-rule="evenodd" d="M12.9026 24.9064C9.45074 28.088 10.9104 49.249 14.4126 47.34C16.9808 45.9551 17.1721 42.8743 15.7418 26.9059C15.4554 23.185 15.0723 22.9066 12.9026 24.9064ZM15.2949 52.2095C12.2143 54.8805 17.6286 73.4208 21.3031 72.8404C23.7649 72.4515 23.4629 68.3941 20.1746 58.7827C17.393 50.7106 17.2481 50.5075 15.2949 52.2095ZM66.9781 61.106C63.3676 62.8062 69.2721 66.0915 76.0718 66.2226C77.6925 66.2302 79.0613 66.3153 79.1832 66.3713C79.3959 66.526 73.0857 69.9708 65.6712 73.816C53.834 79.9415 54.7877 83.5947 66.4122 77.3144C75.4008 72.4674 81.1699 69.4094 81.4638 69.3629C81.6476 69.3339 81.3978 69.9006 80.9878 70.6433C74.8928 81.172 73.6073 84.2374 74.9959 84.9219C77.0479 85.9912 79.6798 83.5794 82.9651 77.6749C87.8961 68.8365 89.5239 66.508 93.8093 62.4039C95.4801 60.8218 93.666 60.5434 88.605 61.6442C80.9216 63.3098 76.6301 63.0838 71.8783 60.8969C70.3253 60.1253 68.9429 60.1931 66.9781 61.106ZM43.2889 85.9007C47.147 85.2912 47.5763 84.4325 49.3011 82.2394L48.4307 81.7366C47.9319 81.4388 45.94 81.2262 43.7141 81.2012C38.6626 81.1706 34.5955 79.7417 30.2323 76.4388C29.6792 76.0366 29.1435 75.7446 29.0023 75.8045C18.9074 79.1316 32.3758 87.6246 43.2889 85.9007Z" fill="#FFC13D"/>
</g>
<defs>
<clipPath id="clip0_1_3555">
<rect width="93" height="93" fill="white" transform="translate(0 14.5107) rotate(-8.97648)"/>
</clipPath>
</defs>
</svg>
